<svg xmlns="http://www.w3.org/2000/svg" width="64" height="64" viewBox="0 0 64 64" fill="none">
  <g clip-path="url(#clip0_582_425)">
    <path d="M32 64C49.6731 64 64 49.6731 64 32C64 14.3269 49.6731 0 32 0C14.3269 0 0 14.3269 0 32C0 49.6731 14.3269 64 32 64Z" fill="#013265"/>
    <path d="M51.1496 43.2378H12.8504C11.5905 43.2378 10.5826 42.2299 10.5826 40.9701V15.2693C10.5826 14.0095 11.5905 13.0016 12.8504 13.0016H51.1496C52.4094 13.0016 53.4173 14.0095 53.4173 15.2693V40.9701C53.3669 42.2299 52.359 43.2378 51.1496 43.2378Z" fill="white"/>
    <path d="M50.7465 15.6221H21.6693V40.6173H50.7465V15.6221Z" fill="#F8E49B"/>
    <path d="M16.5291 31.1433C18.199 31.1433 19.5527 29.7896 19.5527 28.1197C19.5527 26.4498 18.199 25.0961 16.5291 25.0961C14.8592 25.0961 13.5055 26.4498 13.5055 28.1197C13.5055 29.7896 14.8592 31.1433 16.5291 31.1433Z" fill="#19615C"/>
    <path d="M16.5292 29.8835C17.5033 29.8835 18.2929 29.0938 18.2929 28.1197C18.2929 27.1456 17.5033 26.3559 16.5292 26.3559C15.5551 26.3559 14.7654 27.1456 14.7654 28.1197C14.7654 29.0938 15.5551 29.8835 16.5292 29.8835Z" fill="#F8E49B"/>
    <path d="M18.2425 18.5953H14.0094C13.7575 18.5953 13.5055 18.3937 13.5055 18.0913V17.1842C13.5055 16.9323 13.7071 16.6803 14.0094 16.6803H18.2425C18.4945 16.6803 18.7464 16.8819 18.7464 17.1842V18.0913C18.696 18.3937 18.4945 18.5953 18.2425 18.5953Z" fill="#19615C"/>
    <path d="M18.2425 22.5763H14.0094C13.7575 22.5763 13.5055 22.3748 13.5055 22.0724V21.1653C13.5055 20.9133 13.7071 20.6614 14.0094 20.6614H18.2425C18.4945 20.6614 18.7464 20.863 18.7464 21.1653V22.0724C18.696 22.3748 18.4945 22.5763 18.2425 22.5763Z" fill="#19615C"/>
    <path d="M18.2425 35.5779H14.0094C13.7575 35.5779 13.5055 35.3763 13.5055 35.074V34.1669C13.5055 33.9149 13.7071 33.663 14.0094 33.663H18.2425C18.4945 33.663 18.7464 33.8645 18.7464 34.1669V35.074C18.696 35.326 18.4945 35.5779 18.2425 35.5779Z" fill="#19615C"/>
    <path d="M18.2425 39.5087H14.0094C13.7575 39.5087 13.5055 39.3071 13.5055 39.0047V38.0976C13.5055 37.8457 13.7071 37.5937 14.0094 37.5937H18.2425C18.4945 37.5937 18.7464 37.7953 18.7464 38.0976V39.0047C18.696 39.3071 18.4945 39.5087 18.2425 39.5087Z" fill="#19615C"/>
    <path d="M48.2771 45.0519H25.9023V47.9244H48.2771V45.0519Z" fill="white"/>
    <path d="M41.3733 47.9244H50.2426C50.5449 47.9244 50.7969 47.6725 50.7969 47.3701V45.5559C50.7969 45.2536 50.5449 45.0016 50.2426 45.0016H41.3733V47.9244Z" fill="#19615C"/>
    <path d="M25.9024 45.052L23.1307 46.463L25.9024 47.9244V45.052Z" fill="#19615C"/>
    <path d="M31.5464 46.463C31.5464 46.6645 31.3952 46.8661 31.1433 46.8661H27.9685C27.7669 46.8661 27.5653 46.7149 27.5653 46.463C27.5653 46.2614 27.7165 46.0598 27.9685 46.0598H31.1433C31.3952 46.1102 31.5464 46.2614 31.5464 46.463Z" fill="#F8E49B"/>
    <path d="M19.2 51.0488C20.9255 51.0488 22.3244 49.65 22.3244 47.9244C22.3244 46.1988 20.9255 44.8 19.2 44.8C17.4744 44.8 16.0756 46.1988 16.0756 47.9244C16.0756 49.65 17.4744 51.0488 19.2 51.0488Z" fill="white"/>
    <path d="M19.2 49.8394C20.2576 49.8394 21.115 48.982 21.115 47.9244C21.115 46.8668 20.2576 46.0095 19.2 46.0095C18.1424 46.0095 17.285 46.8668 17.285 47.9244C17.285 48.982 18.1424 49.8394 19.2 49.8394Z" fill="#19615C"/>
  </g>
  <defs>
    <clipPath id="clip0_582_425">
      <rect width="64" height="64" fill="white"/>
    </clipPath>
  </defs>
</svg>