<svg xmlns="http://www.w3.org/2000/svg" width="64" height="64" viewBox="0 0 64 64" fill="none">
  <path d="M32.0988 15.4141L0 26.7578V32.0939L13.0166 53.918C17.7851 48.8244 24.5693 45.637 32.0986 45.637C39.5116 45.637 46.203 48.7268 50.9589 53.6836L64 31.8166V26.4805L32.0988 15.4141Z" fill="#CCD1D9"/>
  <path d="M32.0988 10.082C18.8282 10.082 7.09769 16.6719 0.00012207 26.7577L13.0166 48.5861C17.7851 43.4884 24.5693 40.3048 32.0986 40.3048C39.5116 40.3048 46.203 43.3907 50.9589 48.3517L64 26.4806C56.8829 16.5509 45.2462 10.082 32.0988 10.082Z" fill="#E6E9ED"/>
  <path d="M25.3329 29.918C23.8662 29.918 22.6669 28.7188 22.6669 27.2538V24.5859C22.6669 23.1209 23.8672 21.9178 25.3329 21.9178H38.6679C40.1328 21.9178 41.332 23.1209 41.332 24.5859V27.2538C41.332 28.7188 40.1327 29.918 38.6679 29.918H25.3329Z" fill="#DA4453"/>
  <path d="M25.3329 29.918C23.8662 29.918 22.6669 28.7188 22.6669 27.2538V24.5859C22.6669 23.1209 23.8672 21.9178 25.3329 21.9178H38.6679C40.1328 21.9178 41.332 23.1209 41.332 24.5859V27.2538C41.332 28.7188 40.1327 29.918 38.6679 29.918H25.3329Z" fill="#DA4453"/>
  <path d="M36 32.5861C36 34.051 34.8007 35.254 33.3331 35.254H30.6669C29.2002 35.254 28 34.051 28 32.5861V19.254C28 17.7853 29.2002 16.5861 30.6669 16.5861H33.3331C34.8007 16.5861 36 17.7853 36 19.254V32.5861Z" fill="#ED5564"/>
  <path d="M36 32.5861C36 34.051 34.8007 35.254 33.3331 35.254H30.6669C29.2002 35.254 28 34.051 28 32.5861V19.254C28 17.7853 29.2002 16.5861 30.6669 16.5861H33.3331C34.8007 16.5861 36 17.7853 36 19.254V32.5861Z" fill="#ED5564"/>
</svg>