<svg xmlns="http://www.w3.org/2000/svg" width="64" height="64" viewBox="0 0 64 64" fill="none">
  <g clip-path="url(#clip0_584_528)">
    <path d="M17.9187 35.4125C18.5667 34.9211 19.2699 34.5072 20.0141 34.1791C21.7578 33.4671 24.1584 32.6521 25.7426 31.9277C27.147 33.0297 29.4927 33.9007 31.9597 33.9007C34.6607 33.9007 36.8917 33.2459 38.3418 31.9623C39.9242 32.6765 42.2791 33.4778 43.9967 34.1791C45.3342 34.782 46.1221 35.3891 47.1345 36.2702C48.0722 37.1194 48.8764 38.1052 49.5201 39.1943C50.2007 40.3548 50.7107 41.6072 51.0346 42.913C52.1962 47.4695 52.8774 52.1351 53.0672 56.8335C53.154 59.1999 52.6351 61.9161 50.5708 63.0707C49.6279 63.5979 48.4858 63.6189 47.4405 63.3049C42.1861 63.3049 21.1789 63.3075 16.5538 63.309C15.5129 63.6176 14.3777 63.5952 13.4396 63.0707C11.375 61.9155 10.8567 59.199 10.9433 56.8337C11.1331 52.1353 11.8144 47.4697 12.9762 42.9132C13.2998 41.6073 13.8099 40.3549 14.4907 39.1945C15.1344 38.1054 15.9386 37.1196 16.8762 36.2704C17.2406 35.9531 17.5762 35.6714 17.9187 35.4125Z" fill="#3F88C9"/>
    <path d="M20.4949 17.0435C20.477 19.8025 20.1539 21.3516 20.3622 22.5253C20.9034 25.5772 22.8662 26.6408 25.0308 27.0559H39.2547C41.4195 26.6414 43.3824 25.5772 43.9236 22.5253C44.1316 21.3524 43.6312 19.4169 43.6133 16.6581L20.4949 17.0435Z" fill="#3F88C9"/>
    <path d="M20.0011 17.0435C19.9926 18.1135 19.9291 19.1798 19.8585 20.2472C19.7874 20.9378 19.7805 21.6336 19.8379 22.3255C20.0494 24.0785 20.9223 25.7208 22.4576 26.6482C23.2137 27.0834 24.0401 27.3828 24.8995 27.5326C25.0257 27.564 25.1592 27.5458 25.2722 27.4816C25.3853 27.4174 25.4694 27.3122 25.5072 27.1878C25.5408 27.0615 25.5234 26.9271 25.4589 26.8134C25.3944 26.6998 25.2878 26.6161 25.1621 26.5803C23.7999 26.3155 22.4813 25.7838 21.6798 24.6028C21.2177 23.8987 20.9227 23.0983 20.8174 22.2627C20.8312 22.3623 20.812 22.1994 20.8091 22.1664C20.8028 22.0952 20.798 22.024 20.7945 21.9526C20.7867 21.7917 20.7851 21.6308 20.7871 21.4697C20.7917 21.1168 20.8129 20.7641 20.8355 20.412C20.9077 19.2897 20.9795 18.1691 20.9888 17.0441C20.9937 16.4085 20.006 16.4078 20.0011 17.0441V17.0435Z" fill="#211715"/>
    <path d="M43.1194 16.6581C43.1287 17.7281 43.2147 18.7936 43.3252 19.8579C43.4324 20.6041 43.4822 21.3575 43.4742 22.1113C43.4742 22.2343 43.4604 22.3569 43.433 22.4768C43.389 22.713 43.3336 22.9474 43.2663 23.1781C43.1517 23.5799 42.9881 23.9662 42.7793 24.3281C42.4271 24.9314 41.9286 25.4362 41.3298 25.7959C40.647 26.1861 39.9002 26.4515 39.1243 26.5797C38.9987 26.6156 38.8922 26.6994 38.8277 26.813C38.7632 26.9266 38.7459 27.0609 38.7794 27.1872C38.8165 27.312 38.9005 27.4176 39.0137 27.4819C39.127 27.5462 39.2607 27.5641 39.3869 27.5321C40.9703 27.2234 42.4529 26.5238 43.4054 25.1792C43.9286 24.4104 44.2713 23.5333 44.408 22.6134C44.5277 21.8669 44.4423 21.1088 44.3668 20.3623C44.2409 19.1293 44.1199 17.8989 44.1088 16.6583C44.1032 16.0231 43.1155 16.0214 43.1211 16.6583L43.1194 16.6581Z" fill="#211715"/>
    <path d="M20.9231 5.26437C20.2344 5.74335 19.6601 6.36875 19.2415 7.09576C18.6067 8.29913 18.6505 9.74861 18.7791 11.1106C18.9547 12.9706 19.2983 14.9162 20.5282 16.3192C20.6496 16.2642 20.778 16.2263 20.9097 16.2064C21.1212 16.1755 21.3368 16.1908 21.5417 16.2512C21.7467 16.3116 21.9361 16.4157 22.097 16.5562C22.4432 15.3169 22.7889 14.0773 23.1341 12.8375C25.2462 12.3566 28.3219 11.8969 30.4206 11.8352C31.4116 11.8059 32.4047 11.8253 33.3963 11.8446C35.9406 11.8883 38.4751 12.1722 40.966 12.6926C41.3322 14.007 41.6991 15.321 42.0664 16.6349C42.2282 16.4681 42.4273 16.3422 42.6474 16.2678C42.8675 16.1934 43.1022 16.1726 43.332 16.207C43.4231 16.2205 43.5128 16.243 43.5995 16.2743C44.7973 14.8751 45.1354 12.9513 45.309 11.1112C45.4376 9.74922 45.4813 8.29975 44.8467 7.09638C44.2785 6.01935 43.2488 5.29565 42.2525 4.62194C41.1812 3.8972 40.1043 3.18152 39.0218 2.47489C38.413 2.05548 37.7721 1.68475 37.105 1.36617C35.5255 0.659545 33.64 0.493896 32.0436 0.493896C30.548 0.493896 28.5617 0.658516 26.9836 1.36473C26.3165 1.68331 25.6756 2.05404 25.0668 2.47345C23.9841 3.18008 22.9072 3.89576 21.8361 4.6205C21.5301 4.82792 21.2215 5.03946 20.9231 5.26437Z" fill="#3F88C9"/>
    <path d="M26.1307 12.2746C27.551 12.0447 28.9834 11.8977 30.4207 11.8343C31.4117 11.8051 32.4048 11.8244 33.3964 11.8438C35.9405 11.8873 38.4748 12.1713 40.9654 12.692L42.0665 16.6338C42.2283 16.467 42.4274 16.3412 42.6475 16.2669C42.8676 16.1925 43.1023 16.1717 43.332 16.2062C43.5387 16.2353 43.7363 16.3104 43.9102 16.4258C44.0841 16.5413 44.23 16.6943 44.337 16.8735C44.4605 17.1212 44.5306 17.392 44.5428 17.6684C44.6332 18.7504 44.4243 19.8364 43.9391 20.8077C43.7102 21.2984 43.3782 21.7341 42.9657 22.0849C42.7984 22.2474 42.5854 22.3548 42.3552 22.3928C42.1251 22.4307 41.8889 22.3974 41.6782 22.2973C41.5198 22.7706 41.3134 23.1972 41.2461 23.404C40.9002 24.3429 38.9208 27.7386 36.4587 28.8393C36.4941 29.2142 36.5458 29.5873 36.611 29.9597C36.7283 30.6291 36.6915 31.2275 37.6222 31.5635C37.6428 31.5712 37.9665 31.7232 38.386 31.9216C36.9376 33.2315 34.6885 33.9001 31.9595 33.9001C29.5441 33.9001 27.2448 33.0651 25.8309 31.9965C26.3453 31.7588 26.7478 31.5716 26.7703 31.5644C27.701 31.2283 27.6641 30.6299 27.7814 29.9606C27.8452 29.5972 27.8958 29.2609 27.9302 28.9111C26.7241 28.2896 25.6622 27.4213 24.8135 26.3626C23.8585 25.2101 23.1349 23.884 22.6825 22.4572L22.557 22.4911C22.0165 22.6368 21.6037 22.3485 21.2744 22.0858C20.8619 21.735 20.5299 21.2993 20.3011 20.8085C19.8165 19.8371 19.6081 18.7511 19.6988 17.6692C19.7109 17.3925 19.781 17.1214 19.9046 16.8735C20.0116 16.6941 20.1574 16.541 20.3313 16.4254C20.5052 16.3098 20.7028 16.2346 20.9096 16.2053C21.121 16.1745 21.3366 16.1897 21.5416 16.2501C21.7466 16.3105 21.936 16.4146 22.0969 16.5552C22.443 15.3159 22.7892 14.0764 23.1355 12.8368C24.0135 12.6368 25.0584 12.4403 26.1307 12.2746Z" fill="white"/>
    <path d="M27.4705 28.5079C27.4395 28.9362 27.3868 29.3625 27.3124 29.7854C27.28 30.0455 27.2339 30.3038 27.1741 30.5591C27.1653 30.5902 27.1102 30.7336 27.1445 30.6593C27.1214 30.7087 27.0947 30.7564 27.0647 30.8019C27.0217 30.8684 27.1075 30.7554 27.054 30.8173C27.0375 30.8363 27.0202 30.8548 27.0023 30.8725C26.9619 30.9172 26.9134 30.9539 26.8593 30.9805C26.7209 31.0531 26.5788 31.1186 26.4338 31.1768C25.6963 31.5122 24.9637 31.8588 24.2275 32.1973C24.0373 32.2847 23.8472 32.3722 23.6564 32.4582C23.5885 32.4888 23.5204 32.5199 23.4523 32.5496C23.3266 32.6059 23.5657 32.5084 23.454 32.5483C23.3295 32.586 23.2242 32.6701 23.16 32.7832C23.0958 32.8963 23.0775 33.0298 23.1089 33.156C23.1448 33.2816 23.2285 33.3881 23.3422 33.4526C23.4558 33.5171 23.5902 33.5345 23.7165 33.5008C24.0093 33.3961 24.2927 33.2492 24.575 33.1195C25.0277 32.912 25.4798 32.7031 25.9313 32.493L26.9324 32.0296C26.9604 32.0205 26.9873 32.0084 27.0126 31.9933C27.0093 31.996 26.8262 32.0678 26.9359 32.0273C26.99 32.0067 27.0429 31.9845 27.0957 31.9619C27.1954 31.9215 27.2918 31.8734 27.3838 31.8178C27.6943 31.6259 27.9337 31.338 28.0656 30.9976C28.157 30.7202 28.2183 30.4338 28.2483 30.1432C28.338 29.6002 28.4199 29.0578 28.4574 28.5081C28.4574 28.3772 28.4053 28.2515 28.3127 28.1589C28.2201 28.0663 28.0945 28.0143 27.9635 28.0143C27.8325 28.0143 27.7069 28.0663 27.6143 28.1589C27.5217 28.2515 27.4696 28.3772 27.4696 28.5081L27.4705 28.5079Z" fill="#211715"/>
    <path d="M35.9235 28.2613C35.9677 29.0556 36.067 29.8458 36.2206 30.6263C36.279 30.9433 36.4209 31.239 36.6317 31.4828C36.8425 31.7267 37.1145 31.9099 37.4196 32.0136C37.6073 32.0881 37.2937 31.9507 37.4266 32.0149C37.4758 32.0385 37.5256 32.0609 37.575 32.084C37.7306 32.157 37.8861 32.2302 38.0415 32.3038C38.4625 32.5028 38.8834 32.7017 39.3041 32.9005C39.5922 33.0363 39.8762 33.1822 40.1684 33.3069C40.2824 33.3688 40.4158 33.385 40.5413 33.3521C40.6669 33.3192 40.7752 33.2397 40.8441 33.1297C40.9094 33.0164 40.9273 32.882 40.8942 32.7555C40.861 32.629 40.7794 32.5207 40.667 32.454C40.047 32.1898 39.4439 31.8778 38.8346 31.5897C38.5389 31.4498 38.2444 31.3068 37.9466 31.1714C37.7924 31.1114 37.6427 31.0405 37.4987 30.9592C37.429 30.9177 37.3686 30.8623 37.3212 30.7965C37.2738 30.7306 37.2404 30.6557 37.2231 30.5765C37.1527 30.2862 37.0998 29.9918 37.0647 29.6952C36.9866 29.2203 36.9354 28.7414 36.9112 28.2607C36.9085 28.1306 36.8556 28.0065 36.7636 27.9145C36.6715 27.8224 36.5475 27.7695 36.4173 27.7668C36.2867 27.7681 36.1618 27.8205 36.0695 27.9129C35.9771 28.0052 35.9247 28.1301 35.9235 28.2607V28.2613Z" fill="#211715"/>
    <path d="M40.929 15.8626C38.3113 15.5348 35.1369 15.2078 32.0926 15.2146C28.799 15.222 25.969 15.494 22.2587 15.9759L22.7066 14.3723C26.1997 13.9252 28.9328 13.6746 32.0926 13.6676C35.3377 13.6614 38.7301 14.0338 41.4375 14.3814C41.5869 14.9164 41.7365 15.451 41.8863 15.9852C41.5768 15.9447 41.2577 15.9038 40.929 15.8626Z" fill="#A0A0A0"/>
    <path d="M22.7724 13.4299C24.93 12.9021 27.1274 12.5535 29.3424 12.3876C30.6233 12.2903 31.908 12.3094 33.1904 12.3339C34.51 12.3592 35.8272 12.4351 37.1394 12.5767C38.6052 12.7305 40.0594 12.9789 41.4932 13.3202C42.1105 13.469 42.3743 12.5177 41.7557 12.3677C39.1331 11.7556 36.454 11.4177 33.7616 11.3594C32.415 11.3213 31.0602 11.2904 29.7148 11.3744C28.5419 11.4474 27.3731 11.5925 26.2113 11.7668C24.9689 11.9532 23.7293 12.1783 22.509 12.4784C21.8917 12.6304 22.1535 13.5832 22.7716 13.4307L22.7724 13.4299Z" fill="#211715"/>
    <path d="M20.766 15.8415C19.8883 14.6976 19.5313 13.277 19.3554 11.8682C19.1782 10.4542 18.9632 8.79129 19.6095 7.46075C20.2536 6.13536 21.6261 5.3528 22.8048 4.56262C23.5394 4.06959 24.2768 3.58067 25.0171 3.09586C25.7194 2.60231 26.4604 2.16616 27.2328 1.79166C28.5387 1.21138 30.0273 1.04038 31.4422 0.997372C32.9095 0.920446 34.3801 1.06473 35.8046 1.42538C37.4255 1.87603 38.7939 2.90861 40.1779 3.82615C40.8905 4.29944 41.6039 4.77107 42.3081 5.25608C42.8962 5.63784 43.4347 6.09106 43.9113 6.60535C44.9235 7.75933 44.9607 9.30758 44.8445 10.762C44.7321 12.1713 44.5469 13.6587 43.8958 14.9339C43.7323 15.2537 43.5399 15.5578 43.3209 15.8426C43.2555 15.9558 43.2374 16.0903 43.2706 16.2169C43.3037 16.3434 43.3855 16.4517 43.4981 16.5183C43.6119 16.5813 43.7455 16.598 43.8713 16.565C43.9971 16.532 44.1054 16.4518 44.1736 16.3412C45.15 15.0686 45.5153 13.472 45.7139 11.9114C45.9157 10.327 46.0589 8.62214 45.4023 7.12019C44.7494 5.62689 43.2913 4.72662 41.9924 3.85311C41.2158 3.33085 40.4362 2.81313 39.6536 2.29992C38.9128 1.77664 38.1299 1.3155 37.3131 0.921235C35.8011 0.25576 34.137 0.0390795 32.498 0.00512672C30.9454 -0.0581395 29.3921 0.113069 27.8905 0.512978C26.1875 1.00684 24.7421 2.08921 23.2828 3.05779C22.5327 3.55577 21.7771 4.0486 21.0427 4.56818C20.3994 4.99315 19.8194 5.50699 19.32 6.09441C18.253 7.43729 18.1228 9.10736 18.2547 10.7603C18.3798 12.3269 18.5973 13.9326 19.3008 15.3569C19.4725 15.7036 19.6776 16.0327 19.9132 16.3395C19.9822 16.4495 20.0904 16.529 20.2159 16.5619C20.3414 16.5948 20.4748 16.5787 20.5888 16.5167C20.7013 16.45 20.7829 16.3417 20.8161 16.2152C20.8492 16.0887 20.8312 15.9542 20.766 15.8409V15.8415Z" fill="#211715"/>
    <path d="M24.7345 31.6687C25.3924 32.3563 26.1785 32.9086 27.0485 33.2943C28.0983 33.7866 29.2164 34.1178 30.365 34.2767C32.5289 34.5761 34.8827 34.3541 36.8907 33.462C37.8243 33.0593 38.6518 32.4455 39.3081 31.6689C39.3974 31.5746 39.4472 31.4496 39.4472 31.3197C39.4472 31.1898 39.3974 31.0648 39.3081 30.9705C39.215 30.8788 39.0896 30.8274 38.9589 30.8274C38.8282 30.8274 38.7028 30.8788 38.6097 30.9705C37.4948 32.3264 35.8153 32.9719 34.1238 33.2482C32.0073 33.6177 29.8295 33.3841 27.8395 32.5741C26.9314 32.2185 26.1104 31.672 25.4319 30.9715C25.0033 30.5003 24.3063 31.2004 24.7335 31.6699L24.7345 31.6687Z" fill="#211715"/>
    <path d="M41.3689 21.5306C41.2936 21.9461 41.1658 22.3504 40.9886 22.7338C40.9308 22.8743 40.8691 23.0134 40.8139 23.155C40.7958 23.2015 40.7789 23.2486 40.7618 23.2955C40.7561 23.3112 40.7491 23.3264 40.7435 23.3422C40.712 23.4328 40.7812 23.2577 40.7559 23.3138C40.5642 23.7336 40.3455 24.1404 40.1009 24.5316C39.4067 25.7023 38.521 26.7482 37.4806 27.6256C36.9178 28.1046 36.2528 28.4485 35.5366 28.6309C34.9174 28.7737 35.1796 29.7262 35.7992 29.5832C37.2923 29.2385 38.5343 28.146 39.5081 27.012C40.3425 26.0718 41.0394 25.0181 41.5779 23.8822C41.9148 23.1334 42.2484 22.3477 42.3566 21.5306C42.356 21.3998 42.3038 21.2745 42.2113 21.182C42.1188 21.0896 41.9935 21.0373 41.8627 21.0367C41.7328 21.04 41.609 21.093 41.5171 21.185C41.4252 21.2769 41.3721 21.4006 41.3689 21.5306Z" fill="#211715"/>
    <path d="M21.8497 21.1818C22.4465 24.3203 24.3425 27.3756 27.1159 29.0317C27.8888 29.5026 28.746 29.8182 29.6397 29.9608C29.7659 29.9914 29.899 29.9727 30.0118 29.9086C30.1247 29.8445 30.2089 29.7397 30.2472 29.6157C30.281 29.4895 30.2638 29.355 30.1992 29.2413C30.1347 29.1276 30.028 29.0439 29.9023 29.0083C28.4084 28.786 27.1073 27.9886 26.0337 26.9515C24.8704 25.8316 23.966 24.4708 23.384 22.9645C23.1297 22.3012 22.935 21.6166 22.8022 20.9189C22.7664 20.7933 22.6826 20.6868 22.569 20.6223C22.4554 20.5578 22.321 20.5404 22.1948 20.574C22.07 20.6111 21.9644 20.6951 21.9001 20.8083C21.8357 20.9215 21.8177 21.0552 21.8497 21.1814V21.1818Z" fill="#211715"/>
    <path d="M42.4968 16.9019C42.5963 16.8211 42.7107 16.7607 42.8336 16.7243C42.9564 16.6879 43.0853 16.6762 43.2127 16.6898C43.3401 16.7033 43.4636 16.742 43.5761 16.8035C43.6885 16.8649 43.7877 16.948 43.8679 17.048C44.0052 17.2935 44.0727 17.572 44.0629 17.8532C44.1287 18.9451 43.8585 20.031 43.2888 20.9649C43.0139 21.4094 42.5507 22.0362 41.9601 21.8757C41.3459 21.709 41.0837 22.6615 41.6976 22.8282C43.2839 23.2589 44.3193 21.4145 44.7358 20.1661C44.9891 19.4068 45.0949 18.6061 45.0478 17.8071C45.0015 17.063 44.7821 16.3681 44.1072 15.9679C43.7459 15.7613 43.329 15.673 42.915 15.7153C42.501 15.7575 42.1105 15.9282 41.7984 16.2035C41.7068 16.2966 41.6554 16.422 41.6554 16.5527C41.6554 16.6833 41.7068 16.8087 41.7984 16.9019C41.8923 16.992 42.0174 17.0424 42.1476 17.0424C42.2778 17.0424 42.4029 16.992 42.4968 16.9019Z" fill="#211715"/>
    <path d="M22.4435 16.2036C22.1633 15.9564 21.8193 15.7929 21.4507 15.7319C21.082 15.6708 20.7037 15.7146 20.3588 15.8583C19.6266 16.1715 19.2949 16.8254 19.2122 17.5868C19.0452 19.1731 19.5071 20.7615 20.4987 22.0109C21.0393 22.6571 21.8216 23.1643 22.689 22.9661C23.3083 22.8246 23.0462 21.872 22.4264 22.0136C21.8566 22.1439 21.2975 21.4891 21.0212 21.0707C20.6268 20.4576 20.3618 19.7703 20.2425 19.0511C20.1807 18.6854 20.158 18.3142 20.1746 17.9438C20.1581 17.6377 20.2247 17.3329 20.3674 17.0616C20.446 16.9587 20.5446 16.8727 20.6571 16.8086C20.7697 16.7445 20.894 16.7038 21.0226 16.6888C21.1512 16.6737 21.2816 16.6847 21.4059 16.7211C21.5302 16.7575 21.6459 16.8185 21.7461 16.9005C21.8403 16.99 21.9653 17.0399 22.0953 17.0399C22.2253 17.0399 22.3503 16.99 22.4445 16.9005C22.5361 16.8073 22.5874 16.6819 22.5874 16.5513C22.5874 16.4207 22.5361 16.2953 22.4445 16.2021L22.4435 16.2036Z" fill="#211715"/>
    <path d="M27.0762 17.3377C26.9212 17.8413 27.0223 18.9994 27.976 19.0981C29.2368 19.0905 29.3039 17.6902 28.8794 17.0317C28.532 16.4928 27.5104 16.2685 27.0762 17.3377Z" fill="#211715"/>
    <path d="M37.5708 17.3379C37.7257 17.8412 37.6249 18.9995 36.6709 19.0981C35.4103 19.0905 35.343 17.6902 35.7676 17.0317C36.1149 16.4928 37.1366 16.2685 37.5708 17.3379Z" fill="#211715"/>
    <path d="M38.5427 32.5852C40.1477 33.2669 41.7984 33.8363 43.4205 34.4771C44.9144 35.0872 46.2613 36.0086 47.3714 37.1797C48.5695 38.4296 49.4962 39.9137 50.0934 41.5388C50.4044 42.4325 50.6597 43.3446 50.8579 44.2699C51.0813 45.2219 51.2841 46.1785 51.4661 47.1396C51.8306 49.0602 52.1106 50.9944 52.3061 52.9424C52.4021 53.9147 52.4766 54.8887 52.5296 55.8644C52.5882 56.6683 52.5935 57.4751 52.5454 58.2796C52.4398 59.6079 52.0783 61.0498 51.1214 62.0307C50.0076 63.1725 48.3272 63.254 46.9323 62.5846C45.409 61.8415 44.11 60.7077 43.1679 59.2988C42.153 57.8026 41.3287 56.1856 40.714 54.4853C40.5617 54.0689 40.4203 53.6485 40.2864 53.2256C40.0954 52.6216 39.1415 52.8797 39.3341 53.4882C39.8909 55.3042 40.6545 57.0504 41.6097 58.6922C42.099 59.5505 42.67 60.3596 43.3148 61.1082C43.913 61.7609 44.5947 62.3319 45.3423 62.8062C46.0795 63.3236 46.9092 63.6948 47.7863 63.8995C48.6816 64.0943 49.6149 64.014 50.4638 63.6691C51.9166 63.0468 52.8072 61.6379 53.2168 60.1627C53.677 58.5049 53.5825 56.7834 53.471 55.087C53.3352 53.019 53.0975 50.9575 52.7728 48.9107C52.451 46.882 52.0382 44.8703 51.5346 42.8755C51.0974 41.0624 50.3089 39.3525 49.2137 37.8427C48.1635 36.4135 46.8379 35.2089 45.3151 34.2997C44.5135 33.861 43.677 33.4894 42.8141 33.1885C41.9412 32.8566 41.065 32.5346 40.194 32.1963C39.808 32.0463 39.4223 31.8942 39.0417 31.7322C38.9276 31.6704 38.7943 31.6543 38.6688 31.6872C38.5434 31.7201 38.4351 31.7996 38.3661 31.9094C38.3009 32.0227 38.2829 32.1572 38.3161 32.2836C38.3492 32.4101 38.4308 32.5184 38.5433 32.5852H38.5427Z" fill="#211715"/>
    <path d="M32.9005 19.6926C32.6104 19.6802 32.3367 19.6741 32.0815 19.6741C31.884 19.6741 31.67 19.6782 31.4436 19.6885L24.6695 21.0939C24.5872 21.5322 24.6448 22.0672 24.6119 22.4191C24.5589 23.242 24.5831 24.068 24.6839 24.8863C24.7971 25.9728 24.8527 27.1272 25.5955 27.975C26.9701 29.5389 30.1555 30.3723 32.2482 30.3723C33.6449 30.3528 35.0286 30.1018 36.3431 29.6294C37.4852 29.22 38.5511 28.5347 39.1478 27.547C39.7116 26.6169 39.689 25.6847 39.8104 24.625C39.9012 23.8794 39.9156 23.1265 39.8536 22.3779C39.8166 22.0178 39.8721 21.4993 39.7754 21.0733L32.9005 19.6926Z" fill="white"/>
    <path d="M24.1934 20.9633C24.1078 21.4777 24.1491 21.9922 24.1111 22.5085C24.0754 23.0543 24.08 23.6021 24.1249 24.1473C24.1944 25.1105 24.2372 26.1501 24.5442 27.0717C25.1336 28.8414 26.9656 29.7425 28.6286 30.2713C30.4075 30.8461 32.2969 30.9936 34.1434 30.7018C36.1166 30.387 38.3326 29.6754 39.4925 27.9267C40.151 26.9357 40.1817 25.7681 40.3049 24.6257C40.3789 23.9959 40.4021 23.3613 40.3745 22.7278C40.3769 22.1306 40.3361 21.534 40.2522 20.9427C40.235 20.8802 40.2056 20.8217 40.1657 20.7705C40.1259 20.7193 40.0763 20.6765 40.0199 20.6445C39.9635 20.6125 39.9014 20.5919 39.837 20.5839C39.7726 20.5758 39.7073 20.5806 39.6448 20.5978C39.5823 20.6151 39.5237 20.6445 39.4726 20.6843C39.4214 20.7242 39.3786 20.7737 39.3465 20.8301C39.3145 20.8865 39.2939 20.9487 39.2859 21.0131C39.2779 21.0774 39.2827 21.1428 39.2999 21.2053C39.3882 21.6409 39.3411 22.1076 39.3754 22.5509C39.4107 23.0655 39.4077 23.582 39.3664 24.0962C39.3306 24.5862 39.2758 25.0763 39.2254 25.5648C39.1916 26.0119 39.0955 26.452 38.94 26.8725C38.2558 28.5735 36.2462 29.2552 34.6087 29.6118C32.9461 29.9771 31.2207 29.9437 29.5736 29.5145C28.7921 29.3243 28.0366 29.0401 27.3236 28.6681C26.6981 28.3315 26.0556 27.8995 25.698 27.2672C25.2362 26.4497 25.2206 25.4025 25.1397 24.4892C25.0828 23.9211 25.0633 23.3498 25.0815 22.7791C25.0922 22.5336 25.1173 22.2905 25.1173 22.0444C25.1045 21.7712 25.114 21.4974 25.1459 21.2257C25.1768 21.0995 25.1584 20.9663 25.0942 20.8533C25.0301 20.7403 24.9252 20.6561 24.801 20.618C24.6748 20.5843 24.5403 20.6016 24.4266 20.6662C24.313 20.7307 24.2293 20.8374 24.1936 20.9631L24.1934 20.9633Z" fill="#211715"/>
    <path d="M31.4436 20.1829C31.929 20.1613 32.4148 20.1667 32.9004 20.1871C33.0311 20.186 33.1561 20.1337 33.2485 20.0413C33.3409 19.9489 33.3933 19.8239 33.3943 19.6932C33.3917 19.563 33.3388 19.439 33.2467 19.3469C33.1547 19.2548 33.0306 19.202 32.9004 19.1993C32.4148 19.1788 31.929 19.1736 31.4436 19.1952C31.3126 19.1952 31.187 19.2473 31.0944 19.3399C31.0017 19.4325 30.9497 19.5581 30.9497 19.6891C30.9497 19.8201 31.0017 19.9457 31.0944 20.0383C31.187 20.1309 31.3126 20.1829 31.4436 20.1829Z" fill="#211715"/>
    <path d="M22.3819 16.4545C24.9033 16.1286 27.4322 15.8485 29.975 15.751C32.5914 15.6619 35.2109 15.7482 37.8158 16.0092C39.1846 16.1403 40.55 16.3051 41.9132 16.4825C42.044 16.4819 42.1693 16.4297 42.2618 16.3372C42.3543 16.2447 42.4065 16.1195 42.4071 15.9887C42.4039 15.8587 42.3508 15.7349 42.2589 15.643C42.167 15.551 42.0432 15.498 41.9132 15.4948C39.3672 15.1619 36.8119 14.8775 34.2452 14.7666C31.7528 14.6706 29.2567 14.7393 26.7734 14.9723C25.306 15.1038 23.8429 15.2792 22.3819 15.4679C22.2522 15.472 22.129 15.5253 22.0373 15.6171C21.9455 15.7088 21.8922 15.832 21.8881 15.9617C21.8888 16.0925 21.941 16.2177 22.0335 16.3101C22.126 16.4026 22.2512 16.4549 22.3819 16.4556V16.4545Z" fill="#211715"/>
    <path d="M22.382 14.9086C24.9033 14.5827 27.4323 14.3026 29.975 14.2051C32.5917 14.1155 35.2115 14.2015 37.8167 14.4625C39.1855 14.5936 40.5508 14.7584 41.9141 14.9358C42.0448 14.9351 42.1701 14.8829 42.2626 14.7904C42.355 14.6979 42.4073 14.5727 42.4079 14.4419C42.4047 14.3119 42.3517 14.1882 42.2598 14.0962C42.1678 14.0043 42.044 13.9512 41.9141 13.9481C39.368 13.6151 36.8127 13.3297 34.2461 13.2198C31.7537 13.1234 29.2576 13.1918 26.7742 13.4246C25.3068 13.5561 23.8438 13.7312 22.3828 13.9201C22.2531 13.9241 22.1298 13.9774 22.038 14.0692C21.9463 14.1609 21.8929 14.2842 21.8889 14.4139C21.8896 14.5447 21.9419 14.6699 22.0343 14.7624C22.1268 14.8548 22.252 14.9071 22.3828 14.9078L22.382 14.9086Z" fill="#211715"/>
    <path d="M21.2615 16.2579L22.4282 16.434C22.5568 16.4646 22.6922 16.4469 22.8087 16.3844C22.8647 16.3517 22.9137 16.3082 22.9529 16.2566C22.9922 16.2049 23.0208 16.146 23.0373 16.0832C23.0537 16.0205 23.0576 15.9551 23.0488 15.8908C23.04 15.8266 23.0186 15.7647 22.9858 15.7087C22.9543 15.6531 22.912 15.6044 22.8613 15.5655C22.8106 15.5266 22.7526 15.4983 22.6908 15.4823L21.524 15.306C21.3954 15.2755 21.26 15.2932 21.1435 15.3557C21.0875 15.3885 21.0385 15.4319 20.9993 15.4836C20.9601 15.5353 20.9314 15.5942 20.9149 15.6569C20.8985 15.7197 20.8946 15.7851 20.9034 15.8493C20.9122 15.9136 20.9336 15.9755 20.9664 16.0315C20.9979 16.0871 21.0402 16.1358 21.0909 16.1747C21.1416 16.2135 21.1996 16.2418 21.2615 16.2579Z" fill="#211715"/>
    <path d="M21.2615 14.7602L22.4282 14.9365C22.5568 14.967 22.6922 14.9493 22.8087 14.8867C22.9217 14.8206 23.0039 14.7123 23.0372 14.5856C23.0704 14.4589 23.0519 14.3242 22.9858 14.2111C22.9544 14.1555 22.912 14.1068 22.8613 14.068C22.8106 14.0291 22.7526 14.0008 22.6908 13.9848L21.524 13.8074C21.3954 13.7769 21.26 13.7946 21.1435 13.8572C21.0875 13.8899 21.0385 13.9334 20.9993 13.9851C20.9601 14.0367 20.9314 14.0956 20.9149 14.1584C20.8985 14.2211 20.8946 14.2865 20.9034 14.3508C20.9122 14.4151 20.9336 14.477 20.9664 14.533C20.9979 14.5886 21.0402 14.6373 21.0909 14.6761C21.1416 14.715 21.1996 14.7433 21.2615 14.7593V14.7602Z" fill="#211715"/>
    <path d="M42.8355 15.3572L41.6704 15.5438C41.5463 15.5779 41.4404 15.6591 41.3753 15.7701C41.3093 15.8832 41.2908 16.0179 41.324 16.1446C41.3572 16.2713 41.4394 16.3796 41.5525 16.4457L41.6704 16.4955C41.7563 16.5192 41.8471 16.5192 41.933 16.4955L43.0981 16.3089C43.2222 16.2747 43.3281 16.1935 43.3932 16.0825C43.4593 15.9671 43.4772 15.8303 43.443 15.7018C43.4083 15.578 43.3272 15.4723 43.2166 15.4067L43.0987 15.357C43.0128 15.3335 42.9221 15.3335 42.8361 15.357L42.8355 15.3572Z" fill="#211715"/>
    <path d="M42.8355 13.8023L41.6704 13.989C41.5463 14.0231 41.4404 14.1043 41.3753 14.2153C41.3093 14.3284 41.2908 14.4631 41.324 14.5898C41.3572 14.7165 41.4394 14.8248 41.5525 14.8909L41.6704 14.9407C41.7564 14.9641 41.847 14.9641 41.933 14.9407L43.0981 14.754C43.2222 14.7199 43.3281 14.6387 43.3932 14.5277C43.4593 14.4146 43.4777 14.2799 43.4445 14.1532C43.4113 14.0265 43.3291 13.9182 43.216 13.8521L43.0981 13.8023C43.0122 13.7786 42.9214 13.7786 42.8355 13.8023Z" fill="#211715"/>
    <path d="M31.4966 36.8054C31.8346 36.842 32.1755 36.8416 32.5134 36.8039C32.6434 36.7988 32.7673 36.7478 32.8632 36.6599C32.9558 36.5673 33.0078 36.4417 33.0078 36.3107C33.0078 36.1797 32.9558 36.0541 32.8632 35.9615C32.8178 35.9149 32.7634 35.878 32.7032 35.8533C32.643 35.8285 32.5784 35.8163 32.5134 35.8175C32.1755 35.8551 31.8346 35.8556 31.4966 35.8189C31.4317 35.8187 31.3674 35.8313 31.3074 35.856C31.2473 35.8807 31.1928 35.9171 31.1468 35.9629C31.0542 36.0556 31.0022 36.1812 31.0022 36.3121C31.0022 36.4431 31.0542 36.5687 31.1468 36.6613L31.2466 36.7385C31.3223 36.7827 31.4084 36.806 31.496 36.806L31.4966 36.8054Z" fill="#211715"/>
    <path d="M35.9406 31.9228C36.0223 31.9765 36.0982 32.0386 36.167 32.108C35.9988 31.4393 36.0106 30.7008 36.7876 30.4355C37.0102 30.351 37.2563 30.3516 37.4785 30.4372C37.7008 30.5228 37.8836 30.6875 37.992 30.8995C38.0611 31.0333 38.2583 31.4397 38.2583 31.4397L38.3521 31.6325C38.3124 31.4146 38.3511 31.1897 38.4613 30.9976C38.5716 30.8055 38.7462 30.6587 38.9544 30.5831C39.6511 30.3415 40.1685 30.7341 40.5483 31.5286C40.7658 31.9825 41.0907 32.8062 41.5155 33.8571C42.0462 35.1679 42.6653 36.4176 43.1411 37.3199C43.3388 36.609 43.3392 35.7509 43.4909 35.0051C43.5371 34.6069 43.6852 34.2274 43.9208 33.903C44.0543 33.761 44.2306 33.6664 44.4228 33.6338C44.6151 33.6011 44.8127 33.6321 44.9856 33.7221C45.109 33.7873 45.2172 33.8779 45.3031 33.9878C45.389 34.0977 45.4508 34.2246 45.4842 34.36C45.836 36.5558 45.8924 38.7888 45.6519 40.9996C45.5956 41.572 45.3573 42.1122 45.1509 42.6491C45.0523 42.9059 44.9556 43.0666 45.0042 43.3281C45.0811 43.6259 45.1988 43.9117 45.354 44.1773C45.9392 45.2976 46.7199 46.4993 47.4224 47.7551C44.6875 49.5709 42.0132 50.6222 39.6555 51.5375C39.2694 51.6873 39.2735 51.5132 39.1472 51.1187C38.5776 49.3386 38.718 46.3954 38.5239 45.7649C38.3422 45.1741 37.2288 43.743 36.979 43.3674C36.4513 42.5609 35.9797 41.719 35.5675 40.8477C35.1327 39.9046 34.2228 37.9352 33.9572 37.0409C33.8308 36.6876 33.8469 36.2991 34.002 35.9575C34.0934 35.7604 34.2519 35.6023 34.4492 35.5114C34.5675 35.4619 34.6947 35.4375 34.823 35.4395C34.9512 35.4416 35.0776 35.4701 35.1943 35.5233L35.3044 35.5566C35.041 34.7813 34.7977 34.0191 34.5735 33.3279C34.5181 33.1569 34.3841 32.2548 35.0924 31.906C35.2211 31.8288 35.3689 31.7895 35.5189 31.7925C35.669 31.7955 35.8151 31.8406 35.9406 31.9228Z" fill="white"/>
    <path d="M43.6878 37.1579C43.8062 36.5482 43.8294 35.9261 43.9348 35.315C43.9911 34.9868 44.0523 34.2523 44.4447 34.1348C44.5219 34.1122 44.6039 34.1116 44.6814 34.133C44.759 34.1545 44.829 34.1972 44.8836 34.2563C45.0566 34.4386 45.0482 34.7328 45.0824 34.9684C45.1709 35.5858 45.2287 36.2066 45.2641 36.8284C45.3309 38.0856 45.3081 39.3459 45.196 40.5999C45.1315 41.2021 44.9784 41.7915 44.7416 42.349C44.628 42.5846 44.5485 42.8353 44.5058 43.0934C44.4986 43.4135 44.5737 43.73 44.7237 44.0128C45.2776 45.2555 46.0723 46.3998 46.7522 47.5746C47.0706 48.1246 47.9251 47.6279 47.6052 47.0762C46.9446 45.9344 46.1993 44.825 45.631 43.6326C45.5671 43.5372 45.5265 43.4283 45.5122 43.3144C45.4979 43.2006 45.5104 43.0849 45.5487 42.9768C45.667 42.6698 45.7956 42.3664 45.9038 42.0559C46.1051 41.3905 46.2142 40.7005 46.2281 40.0054C46.324 38.6315 46.3071 37.252 46.1775 35.8808C46.1452 35.5516 46.1051 35.2236 46.0604 34.896C46.0438 34.5585 45.9699 34.2262 45.8419 33.9134C45.6943 33.6324 45.4589 33.4073 45.1716 33.2723C44.8843 33.1374 44.5607 33.1 44.2502 33.1659C43.5286 33.3192 43.2008 34.0227 43.0557 34.6777C42.8931 35.4092 42.8773 36.1611 42.7349 36.8953C42.7034 37.0215 42.7217 37.1549 42.7859 37.268C42.8501 37.381 42.9553 37.4651 43.0798 37.5028C43.206 37.5364 43.3404 37.519 43.454 37.4545C43.5676 37.39 43.6514 37.2835 43.6872 37.1579H43.6878Z" fill="#211715"/>
    <path d="M43.5686 37.0719C43.0262 36.0389 42.5132 34.9874 42.0679 33.9088C41.843 33.3637 41.6276 32.8147 41.4033 32.2694C41.2483 31.8554 41.0672 31.4517 40.8612 31.0606C40.6321 30.6064 40.2394 30.2558 39.7622 30.0793C39.5234 30.011 39.2716 30.0015 39.0283 30.0513C38.785 30.1012 38.5573 30.209 38.3646 30.3657C38.1594 30.536 38.0056 30.76 37.9203 31.0126C37.835 31.2653 37.8216 31.5367 37.8816 31.7965C37.9627 32.0878 38.0615 32.374 38.1773 32.6533C38.2847 32.9533 38.3928 33.253 38.5014 33.5524C38.9434 34.7683 39.4128 35.9725 39.9299 37.1588C39.9967 37.2712 40.105 37.3528 40.2314 37.386C40.3579 37.4191 40.4924 37.4012 40.6057 37.3359C40.7163 37.2675 40.7963 37.1592 40.8293 37.0335C40.8623 36.9077 40.8456 36.774 40.7828 36.6602C40.3859 35.7496 40.0215 34.8263 39.6758 33.895C39.4959 33.4098 39.3204 32.9227 39.1457 32.4354C39.0527 32.1766 38.949 31.9187 38.8677 31.6559C38.8375 31.5836 38.8258 31.5049 38.8336 31.427C38.8413 31.349 38.8683 31.2742 38.9121 31.2092C38.985 31.1133 39.0886 31.0453 39.2055 31.0165C39.3224 30.9877 39.4457 30.9998 39.5548 31.0508C39.8223 31.1709 40.0281 31.5763 40.1622 31.8621C40.5417 32.676 40.8438 33.5254 41.1911 34.352C41.6508 35.4471 42.1636 36.5182 42.7159 37.5695C43.0116 38.1325 43.8643 37.6337 43.5686 37.0711V37.0719Z" fill="#211715"/>
    <path d="M38.7898 37.4141C38.2638 36.3403 37.802 35.2363 37.4068 34.1079C37.2025 33.5756 37.0006 33.0418 36.81 32.5041C36.7099 32.2463 36.6353 31.9793 36.5874 31.7069C36.5765 31.5963 36.5722 31.4851 36.5746 31.374C36.5828 31.2734 36.6142 31.1761 36.6664 31.0898C36.756 30.9762 36.8858 30.9011 37.029 30.88C37.1722 30.8589 37.318 30.8934 37.4366 30.9764C37.6284 31.1367 37.7247 31.468 37.8327 31.689C37.8997 31.8012 38.008 31.8827 38.1344 31.9158C38.2608 31.949 38.3951 31.9311 38.5085 31.8662C38.6196 31.7982 38.7 31.6899 38.733 31.564C38.7661 31.438 38.7491 31.3042 38.6857 31.1904C38.5679 30.9012 38.4143 30.6279 38.2282 30.377C38.0585 30.1857 37.8417 30.0422 37.5993 29.9608C37.3569 29.8794 37.0974 29.8629 36.8467 29.913C35.8966 30.0832 35.497 30.9538 35.6165 31.8382C35.7024 32.4728 35.9664 33.0788 36.1902 33.675C36.4646 34.4078 36.7481 35.1371 37.0407 35.863C37.305 36.5607 37.604 37.2448 37.9367 37.9127C38.233 38.4753 39.0857 37.9767 38.7896 37.4141H38.7898Z" fill="#211715"/>
    <path d="M36.8725 38.2911C36.2864 36.9152 35.7732 35.5093 35.3352 34.0794C35.2389 33.7822 35.1218 33.484 35.045 33.1814C35.0378 33.1525 35.0331 33.1233 35.0261 33.0945C35.0212 33.0739 35.03 33.1974 35.0261 33.084C35.0191 32.9849 35.0196 32.8855 35.0278 32.7865C35.0185 32.8669 35.0786 32.5924 35.0652 32.6256C35.095 32.5363 35.1509 32.458 35.2257 32.4008C35.3049 32.3303 35.4084 32.2932 35.5143 32.2973C35.6203 32.3014 35.7206 32.3464 35.7941 32.4229C35.9073 32.4881 36.0418 32.5061 36.1682 32.473C36.2947 32.4398 36.403 32.3581 36.4696 32.2457C36.5327 32.1319 36.5494 31.9982 36.5164 31.8723C36.4835 31.7465 36.4032 31.6382 36.2925 31.5699C36.1277 31.4562 35.9408 31.3788 35.7439 31.3427C35.5471 31.3067 35.3448 31.3128 35.1505 31.3607C34.9562 31.4087 34.7742 31.4973 34.6167 31.6207C34.4592 31.7442 34.3297 31.8997 34.2368 32.077C34.1171 32.3283 34.0499 32.6013 34.039 32.8795C34.0282 33.1576 34.0741 33.4351 34.1738 33.695C34.6982 35.4248 35.3145 37.1254 36.02 38.7895C36.0867 38.9019 36.195 38.9836 36.3214 39.0167C36.4479 39.0499 36.5823 39.0319 36.6956 38.9667C36.8063 38.8985 36.8865 38.7902 36.9195 38.6644C36.9525 38.5386 36.9357 38.4049 36.8727 38.2911H36.8725Z" fill="#211715"/>
    <path d="M35.326 35.0487C35.041 34.9351 34.7264 34.9195 34.4316 35.0045C34.1369 35.0896 33.8789 35.2703 33.6983 35.5183C33.5339 35.7657 33.4298 36.0482 33.3943 36.3431C33.3589 36.6381 33.3931 36.9372 33.4942 37.2165C33.7809 38.0695 34.1205 38.9037 34.5109 39.7144C34.9095 40.6054 35.3087 41.4969 35.7867 42.3494C36.201 43.0717 36.6548 43.7706 37.146 44.4429C37.393 44.7891 37.6382 45.1387 37.8531 45.5062C37.8942 45.5761 37.9335 45.6467 37.9708 45.7185C37.986 45.7482 38.0611 45.929 38.0247 45.8264C38.0417 45.8731 38.0561 45.9208 38.0679 45.9692C38.0735 45.993 38.0761 46.0175 38.0817 46.0414C38.1115 46.1661 38.0737 45.9533 38.0862 46.0649C38.1728 46.8412 38.1733 47.6271 38.2274 48.4062C38.2672 49.3681 38.4166 50.3224 38.6725 51.2506C38.8165 51.7214 39.0289 52.179 39.6174 52.0638C39.8507 52.0016 40.078 51.9186 40.2964 51.8158C40.5434 51.7187 40.7899 51.6204 41.036 51.5208C43.5857 50.5211 46.0247 49.2591 48.3134 47.7551C48.8379 47.402 48.3441 46.546 47.8148 46.9024C45.913 48.1672 43.8973 49.2518 41.7941 50.1423C41.3451 50.3355 40.8926 50.5207 40.4386 50.7022C40.2191 50.7898 39.9993 50.8766 39.7791 50.9625C39.6762 51.0036 39.5622 51.0353 39.4622 51.0841C39.3832 51.1226 39.4417 51.079 39.4433 51.0967C39.4355 51.0119 39.7304 51.1965 39.7166 51.2755C39.7028 51.187 39.6758 51.1011 39.6363 51.0207C39.6073 50.9265 39.5781 50.8326 39.5524 50.7374C39.4954 50.5267 39.4495 50.3131 39.41 50.0982C39.3318 49.6715 39.2838 49.2406 39.247 48.8084C39.1791 48.0107 39.1628 47.2104 39.106 46.412C39.0992 46.1534 39.0655 45.8961 39.0056 45.6445C38.896 45.3265 38.7424 45.0254 38.5494 44.75C38.1815 44.1711 37.7504 43.6371 37.3728 43.0655C36.8275 42.2343 36.346 41.3629 35.9324 40.4589C35.5472 39.6237 35.1609 38.7874 34.8136 37.9355C34.6357 37.5527 34.4949 37.1536 34.3932 36.7439C34.3 36.2659 34.5345 35.7934 35.0654 36.0004C35.1917 36.0343 35.3263 36.0171 35.44 35.9525C35.5536 35.8879 35.6373 35.7812 35.6729 35.6553C35.7047 35.5292 35.6866 35.3956 35.6224 35.2824C35.5581 35.1692 35.4527 35.0852 35.328 35.0479L35.326 35.0487Z" fill="#211715"/>
    <path d="M24.9695 31.7322C23.3194 32.4319 21.6154 32.9961 19.9552 33.6735C18.3291 34.3719 16.876 35.4185 15.6983 36.7395C14.4447 38.1283 13.4846 39.7561 12.8757 41.5252C12.5689 42.4645 12.3141 43.42 12.1125 44.3874C11.8836 45.3898 11.6772 46.3969 11.4935 47.4087C11.1201 49.4665 10.8398 51.5391 10.6525 53.6264C10.4931 55.4243 10.3099 57.2686 10.5674 59.0655C10.777 60.5285 11.3417 62.0644 12.5173 63.0287C13.9643 64.216 15.8901 64.2329 17.5398 63.4559C19.172 62.6625 20.5678 61.4551 21.588 59.9542C22.6879 58.3532 23.5773 56.6173 24.2343 54.7893C24.3925 54.3592 24.539 53.925 24.6773 53.4879C24.8695 52.8805 23.9159 52.6206 23.7248 53.2254C23.2013 54.9298 22.487 56.5696 21.5956 58.1138C21.1463 58.9174 20.6206 59.6758 20.0258 60.3785C19.4809 60.9844 18.8569 61.5141 18.1705 61.9533C17.4945 62.4327 16.7299 62.7731 15.9212 62.9546C15.152 63.1135 14.3515 62.9974 13.6591 62.6266C12.4506 61.9381 11.8656 60.615 11.6051 59.3042C11.2863 57.6991 11.4522 56.0219 11.5759 54.4055C11.7248 52.4575 11.9613 50.5192 12.2854 48.5905C12.6099 46.6533 13.0002 44.7166 13.5114 42.8194C13.9502 41.1382 14.7188 39.561 15.7726 38.1796C16.7768 36.8758 18.0373 35.7916 19.4766 34.9938C20.2237 34.6162 20.9955 34.2898 21.7868 34.0167C22.6185 33.7025 23.4536 33.3949 24.2806 33.0702C24.6784 32.9139 25.0741 32.7523 25.4677 32.5854C25.5802 32.5187 25.6619 32.4104 25.6951 32.2839C25.7282 32.1574 25.7102 32.0229 25.6449 31.9096C25.5764 31.7991 25.4681 31.7191 25.3423 31.6861C25.2166 31.6532 25.083 31.6697 24.9691 31.7324L24.9695 31.7322Z" fill="#211715"/>
    <path d="M28.0683 31.9228C27.9861 31.9763 27.9098 32.0384 27.8407 32.108C28.0088 31.4392 27.9971 30.7007 27.2203 30.4355C26.9976 30.3509 26.7515 30.3515 26.5292 30.4371C26.3069 30.5227 26.1241 30.6874 26.0157 30.8995C25.9465 31.0332 25.7494 31.4396 25.7494 31.4396L25.6558 31.6324C25.6954 31.4145 25.6566 31.1897 25.5463 30.9976C25.4361 30.8055 25.2614 30.6587 25.0533 30.583C24.3565 30.3414 23.8402 30.734 23.4593 31.5285C23.242 31.9825 22.9169 32.8062 22.4922 33.8571C21.9615 35.1679 21.3423 36.4175 20.8666 37.3198C20.6688 36.6089 20.6684 35.7508 20.5167 35.0051C20.4705 34.6069 20.3225 34.2273 20.0869 33.903C19.9533 33.7609 19.777 33.6664 19.5848 33.6337C19.3926 33.6011 19.195 33.6321 19.022 33.7221C18.8987 33.7873 18.7905 33.8779 18.7046 33.9878C18.6187 34.0977 18.5569 34.2246 18.5234 34.36C18.1717 36.5558 18.1153 38.7888 18.3557 40.9995C18.4121 41.572 18.6504 42.1121 18.8568 42.649C18.9553 42.9058 19.052 43.0665 19.0035 43.3281C18.9265 43.6259 18.8088 43.9117 18.6537 44.1773C18.0684 45.2975 17.0992 46.7188 16.3967 47.9746C19.1317 49.7904 21.9938 50.6221 24.3522 51.5374C24.7382 51.6872 24.7343 51.5131 24.8604 51.1187C25.43 49.3385 25.2899 46.3953 25.4837 45.7648C25.6654 45.1741 26.7789 43.7429 27.0289 43.3674C27.5564 42.5607 28.0279 41.7189 28.4401 40.8476C28.8751 39.9046 29.7848 37.9351 30.0507 37.0408C30.177 36.6875 30.1608 36.299 30.0056 35.9574C29.9143 35.7603 29.7558 35.6022 29.5585 35.5113C29.4402 35.4619 29.3129 35.4374 29.1847 35.4395C29.0565 35.4415 28.93 35.47 28.8134 35.5232L28.7033 35.5566C28.9669 34.7812 29.2099 34.019 29.4342 33.3278C29.4895 33.1568 29.6237 32.2547 28.9154 31.9059C28.7869 31.829 28.6392 31.7898 28.4894 31.7927C28.3396 31.7957 28.1937 31.8408 28.0683 31.9228Z" fill="white"/>
    <path d="M21.2734 36.8953C21.1386 36.2006 21.1217 35.4893 20.9777 34.7964C20.8542 34.2063 20.6328 33.5443 20.0459 33.2673C19.7542 33.1328 19.4256 33.1005 19.1133 33.1756C18.8009 33.2508 18.523 33.429 18.3244 33.6815C18.1264 33.9533 18.0098 34.2759 17.9882 34.6114C17.9328 34.9864 17.8853 35.3623 17.8442 35.7393C17.7017 37.1571 17.68 38.5845 17.7793 40.006C17.7942 40.7164 17.9084 41.4211 18.1187 42.0998C18.2285 42.4084 18.3625 42.7064 18.473 43.0138C18.5736 43.2935 18.4298 43.5332 18.3014 43.7857C17.6841 44.9998 16.8968 46.1194 16.2146 47.2964C15.8955 47.8475 16.7496 48.3459 17.0676 47.795C17.6369 46.8122 18.2703 45.8681 18.8317 44.8808C19.1099 44.3917 19.484 43.8223 19.5083 43.2455C19.4971 42.9634 19.4261 42.6869 19.3 42.4344C19.1835 42.137 19.0628 41.8403 18.9708 41.5343C18.7856 40.919 18.7775 40.2515 18.7444 39.6136C18.7096 38.9551 18.6979 38.2966 18.7129 37.6371C18.7279 36.9876 18.7695 36.3392 18.8376 35.692C18.8701 35.3866 18.9086 35.0822 18.9549 34.7787C18.9909 34.5425 19.0016 34.2927 19.2395 34.1676C19.7712 33.8875 19.9428 34.6699 20.0169 35.0197C20.1665 35.7255 20.1836 36.4504 20.3209 37.1585C20.3567 37.2841 20.4405 37.3906 20.5541 37.4551C20.6677 37.5196 20.8021 37.5369 20.9283 37.5034C21.0531 37.4663 21.1588 37.3824 21.2231 37.2691C21.2874 37.1559 21.3055 37.0222 21.2734 36.8959V36.8953Z" fill="#211715"/>
    <path d="M21.293 37.5702C21.772 36.658 22.2241 35.7312 22.6334 34.7857C23.0213 33.8898 23.3577 32.9724 23.7493 32.0783C23.8666 31.7308 24.0596 31.4136 24.3143 31.1497C24.4064 31.0654 24.5246 31.0153 24.6492 31.0079C24.7737 31.0004 24.8971 31.0359 24.9985 31.1085C25.301 31.3293 25.122 31.7116 25.0092 32.0279C24.8292 32.5308 24.6491 33.0339 24.4656 33.5356C24.0802 34.5884 23.674 35.6331 23.226 36.6609C23.1642 36.7748 23.148 36.908 23.1809 37.0334C23.2137 37.1587 23.2931 37.2669 23.4028 37.3359C23.5161 37.401 23.6505 37.419 23.7769 37.3858C23.9033 37.3526 24.0116 37.2711 24.0783 37.1587C24.5378 36.1049 24.9615 35.0372 25.3584 33.9585C25.5683 33.3879 25.7731 32.8156 25.9778 32.2431C26.1756 31.6911 26.2659 31.1392 25.8941 30.634C25.7462 30.4344 25.5516 30.2741 25.3274 30.1671C25.1032 30.0601 24.8562 30.0096 24.608 30.0202C24.358 30.0402 24.1156 30.1161 23.8988 30.2422C23.682 30.3683 23.4963 30.5414 23.3552 30.7488C23.1 31.1216 22.8926 31.525 22.7379 31.9495C22.5278 32.4485 22.3276 32.9514 22.1249 33.4533C21.6259 34.688 21.0588 35.8924 20.4392 37.0719C20.1439 37.634 20.996 38.1339 21.2921 37.5702H21.293Z" fill="#211715"/>
    <path d="M26.0718 37.9127C26.7379 36.6476 27.2186 35.2623 27.7232 33.9272C28.1584 32.7759 29.1311 30.7389 27.5369 30.0342C27.2771 29.9106 26.9874 29.8638 26.7018 29.8992C26.4163 29.9345 26.1468 30.0506 25.9249 30.2338C25.6302 30.4819 25.487 30.8525 25.3228 31.1904C25.2601 31.3043 25.2435 31.4379 25.2764 31.5637C25.3094 31.6894 25.3894 31.7977 25.5 31.8662C25.6133 31.9311 25.7477 31.949 25.874 31.9159C26.0004 31.8828 26.1088 31.8014 26.1757 31.6892C26.2629 31.4574 26.3764 31.2365 26.5142 31.0307C26.6004 30.9414 26.7154 30.8853 26.8389 30.8725C26.9624 30.8597 27.0865 30.891 27.1892 30.9608C27.2789 31.017 27.3501 31.0985 27.3936 31.1951C27.4371 31.2916 27.451 31.3989 27.4336 31.5034C27.4184 31.7937 27.3572 32.0798 27.2523 32.351C26.8568 33.5089 26.4029 34.6505 25.9414 35.7833C25.7177 36.3325 25.502 36.8768 25.2189 37.4147C24.923 37.9767 25.7745 38.4765 26.0718 37.9133V37.9127Z" fill="#211715"/>
    <path d="M27.9891 38.7895C28.6944 37.1253 29.3106 35.4247 29.8351 33.6949C29.9348 33.4351 29.9807 33.1576 29.9699 32.8795C29.9591 32.6013 29.8919 32.3283 29.7723 32.0769C29.6794 31.8997 29.5498 31.7441 29.3923 31.6207C29.2348 31.4972 29.0528 31.4085 28.8585 31.3606C28.6642 31.3127 28.4619 31.3065 28.265 31.3426C28.0681 31.3787 27.8811 31.4562 27.7164 31.5699C27.6065 31.6387 27.527 31.7468 27.494 31.8722C27.461 31.9976 27.477 32.1309 27.5388 32.2449C27.6055 32.3573 27.7138 32.439 27.8403 32.4721C27.9668 32.5053 28.1013 32.4873 28.2146 32.422C28.2883 32.3459 28.3885 32.3011 28.4943 32.297C28.6002 32.2929 28.7036 32.3298 28.7829 32.4C28.8574 32.4574 28.9132 32.5356 28.9432 32.6247C28.9227 32.5733 28.9638 32.7157 28.9638 32.7124C28.9638 32.715 28.9901 32.8718 28.9805 32.7856C28.9888 32.8779 28.9899 32.9706 28.9838 33.063C28.9809 33.1299 28.9675 33.1634 28.9838 33.0787C28.9776 33.1091 28.9737 33.1404 28.9648 33.1702C28.8759 33.4752 28.77 33.7762 28.672 34.0785C28.234 35.5085 27.7208 36.9144 27.1347 38.2903C27.0724 38.4044 27.0561 38.5381 27.0891 38.6638C27.1222 38.7896 27.2021 38.8979 27.3125 38.9667C27.4258 39.0318 27.5602 39.0498 27.6867 39.0166C27.8131 38.9835 27.9214 38.9019 27.9882 38.7895H27.9891Z" fill="#211715"/>
    <path d="M28.9452 36.0012C29.4064 35.8214 29.6798 36.159 29.6364 36.62C29.5768 36.9693 29.4703 37.3091 29.3197 37.6299C29.0096 38.4232 28.6559 39.1998 28.3016 39.9741C27.912 40.8443 27.4728 41.6915 26.9863 42.5115C26.613 43.1288 26.1765 43.6976 25.7672 44.291C25.3917 44.8357 25.0178 45.3771 24.9382 46.0463C24.8536 46.756 24.8538 47.4766 24.809 48.1894C24.7781 49.0597 24.6577 49.9245 24.4495 50.7701C24.4229 50.8658 24.3929 50.9604 24.3639 51.0553C24.3451 51.1156 24.3042 51.2592 24.3021 51.2571C24.2542 51.2213 24.5157 51.1205 24.4563 51.1466C24.6085 51.0795 24.6069 51.1285 24.5491 51.0849C24.4378 51.0263 24.3199 50.9813 24.1978 50.9511C23.7389 50.7754 23.2786 50.604 22.8191 50.4305C20.4453 49.5362 18.12 48.5421 16.0074 47.1223C15.4783 46.7667 14.9834 47.6219 15.5088 47.9752C17.563 49.3558 19.8253 50.3445 22.131 51.2219C22.6345 51.4135 23.1393 51.6012 23.6432 51.7921C24.0688 51.9535 24.6427 52.2905 25.0425 51.8938C25.3261 51.6123 25.4086 51.0464 25.4913 50.6711C25.595 50.1782 25.6706 49.6799 25.7177 49.1784C25.8094 48.2917 25.8294 47.4013 25.8866 46.5124C25.8963 46.3628 25.9072 46.2134 25.9245 46.0644C25.9335 45.9848 25.9016 46.1498 25.9343 46.0109C25.9463 45.9605 25.9588 45.9117 25.9728 45.8619C26.0061 45.7446 25.9434 45.9218 25.9773 45.8465C25.9936 45.8107 26.0107 45.7755 26.0284 45.7405C26.0695 45.6607 26.1127 45.5829 26.1578 45.5057C26.2625 45.3265 26.3755 45.1522 26.4914 44.9798C26.9208 44.34 27.3968 43.7361 27.7989 43.0776C28.3232 42.1984 28.7945 41.2885 29.2101 40.3529C29.6449 39.3996 30.0916 38.4411 30.4377 37.4515C30.6371 36.8805 30.7258 36.2679 30.4338 35.7096C30.2762 35.4021 30.01 35.1641 29.6867 35.0419C29.3635 34.9197 29.0063 34.922 28.6847 35.0485C28.5605 35.0865 28.4556 35.1706 28.3915 35.2836C28.3273 35.3966 28.3089 35.5298 28.3398 35.6559C28.3754 35.7817 28.4591 35.8884 28.5728 35.953C28.6865 36.0176 28.821 36.0348 28.9473 36.001L28.9452 36.0012Z" fill="#211715"/>
    <path d="M22.5945 12.9381L21.8663 15.5452C21.8315 15.6715 21.8482 15.8065 21.9129 15.9204C21.9776 16.0344 22.0849 16.118 22.2113 16.1528C22.3376 16.1876 22.4725 16.1708 22.5865 16.1061C22.7004 16.0414 22.784 15.9341 22.8188 15.8078L23.5468 13.2006C23.5817 13.0743 23.5649 12.9393 23.5002 12.8254C23.4355 12.7115 23.3282 12.6279 23.2019 12.5931C23.0755 12.5583 22.9406 12.575 22.8266 12.6397C22.7127 12.7044 22.6293 12.8117 22.5945 12.9381Z" fill="#211715"/>
    <path d="M40.5008 12.8646L41.229 15.4717C41.2639 15.598 41.3474 15.7054 41.4614 15.7701C41.5753 15.8347 41.7103 15.8515 41.8366 15.8167C41.9629 15.7819 42.0702 15.6983 42.1349 15.5844C42.1996 15.4705 42.2164 15.3355 42.1816 15.2092L41.4533 12.602C41.4185 12.4757 41.3349 12.3684 41.221 12.3037C41.1071 12.239 40.9721 12.2222 40.8458 12.257C40.7195 12.2918 40.6122 12.3754 40.5475 12.4893C40.4828 12.6033 40.466 12.7383 40.5008 12.8646Z" fill="#211715"/>
    <path d="M47.4446 62.8113H42.8381H36.0185H28.4872H21.6246C20.0569 62.8113 18.4892 62.8117 16.9216 62.8125H16.5533C15.9176 62.8125 15.9166 63.8002 16.5533 63.8002C18.0061 63.8002 19.459 63.7998 20.912 63.799H27.5921H35.115H42.1012H47.4442C48.0796 63.799 48.0806 62.8113 47.4442 62.8113H47.4446Z" fill="#211715"/>
    <path d="M21.8411 15.8903C22.0615 16.7863 22.2271 17.6948 22.4403 18.5925C22.5461 19.0378 22.6597 19.4821 22.8 19.9177C22.9377 20.3453 23.0799 20.8482 23.4311 21.1505C23.8859 21.5415 24.5915 21.5917 25.1609 21.6946C25.7677 21.8041 26.3801 21.8882 26.9939 21.9481C27.6077 22.008 28.2285 22.0407 28.8479 22.051C29.4185 22.0598 29.9961 22.0436 30.4567 21.6625C30.8171 21.3159 31.1407 20.933 31.4224 20.5198C31.6397 20.2424 31.8833 19.8784 32.0924 19.6506C32.1965 19.5371 32.1465 19.5379 32.2498 19.6506C32.3253 19.7329 32.4276 19.8801 32.5187 20.0005C32.8118 20.3857 33.1103 20.7668 33.4186 21.1398C33.7423 21.5308 34.0322 21.8685 34.5485 21.9911C35.1537 22.1352 35.8408 22.0529 36.4562 22.017C37.6816 21.9484 38.8992 21.7787 40.0966 21.5096C40.4203 21.4609 40.7229 21.3189 40.9672 21.1009C41.1517 20.8961 41.2904 20.6544 41.3742 20.3918C41.5554 19.9127 41.7048 19.4222 41.8214 18.9234C42.0731 17.9182 42.2535 16.897 42.5004 15.8911C42.6523 15.2738 41.7 15.0106 41.5481 15.6286C41.3399 16.4751 41.1812 17.3334 40.9837 18.1826C40.8808 18.623 40.7717 19.0623 40.6396 19.4949C40.5509 19.7858 40.475 20.2357 40.2526 20.4209C40.0828 20.5622 39.7688 20.5735 39.5587 20.618C39.255 20.6825 38.95 20.7403 38.6438 20.7915C38.0905 20.8838 37.5337 20.9503 36.9744 20.995C36.3842 21.0421 35.7912 21.0678 35.1992 21.0672C35.0016 21.0818 34.8034 21.0504 34.6201 20.9754C34.4576 20.8575 34.3167 20.7125 34.2034 20.5468C33.9185 20.2049 33.6411 19.8569 33.3713 19.5027C33.1334 19.1899 32.9186 18.8236 32.5457 18.659C31.6372 18.2598 31.075 19.3792 30.6114 19.9638C30.4558 20.1599 30.2981 20.354 30.1381 20.5462C30.0558 20.6447 29.9768 20.7468 29.8896 20.8408C29.8085 20.9283 29.8235 20.9231 29.7455 20.9606C29.3161 21.1664 28.731 21.0662 28.2668 21.0478C27.0953 21.0032 25.9296 20.8592 24.7824 20.6174C24.5682 20.5719 24.2369 20.5612 24.0727 20.4027C23.9596 20.2663 23.8814 20.1044 23.8449 19.9309C23.6839 19.4664 23.5476 18.9938 23.4365 18.515C23.2027 17.5573 23.0284 16.586 22.793 15.6288C22.6413 15.0115 21.6884 15.273 21.8405 15.8913L21.8411 15.8903Z" fill="#211715"/>
  </g>
  <defs>
    <clipPath id="clip0_584_528">
      <rect width="64" height="64" fill="white"/>
    </clipPath>
  </defs>
</svg>