<svg xmlns="http://www.w3.org/2000/svg" width="64" height="64" viewBox="0 0 64 64" fill="none">
  <g clip-path="url(#clip0_582_403)">
    <path d="M32 64C49.6731 64 64 49.6731 64 32C64 14.3269 49.6731 0 32 0C14.3269 0 0 14.3269 0 32C0 49.6731 14.3269 64 32 64Z" fill="#19615C"/>
    <path d="M55.0804 48.7307H12.3969C11.9434 48.7307 11.641 48.3779 11.641 47.9748V16.0252C11.641 15.5716 11.9937 15.2693 12.3969 15.2693H55.0804C55.5339 15.2693 55.8363 15.622 55.8363 16.0252V47.9748C55.8363 48.4283 55.4835 48.7307 55.0804 48.7307Z" fill="white"/>
    <path d="M55.8363 21.6189V16.0252C55.8363 15.622 55.4835 15.2693 55.0804 15.2693H12.3969C11.9937 15.2693 11.641 15.622 11.641 16.0252V21.6189H55.8363Z" fill="#F8E49B"/>
    <path d="M40.2646 19.6536H14.211C13.8583 19.6536 13.6063 19.4016 13.6063 19.0488V17.6378C13.6063 17.285 13.8583 17.0331 14.211 17.0331H40.315C40.6677 17.0331 40.9197 17.285 40.9197 17.6378V19.0488C40.9197 19.4016 40.6173 19.6536 40.2646 19.6536Z" fill="white"/>
    <path d="M15.1181 18.8472H14.8158L14.463 17.8394H14.7654L14.9669 18.4441L15.1685 17.8394H15.4205L15.6221 18.4441L15.8236 17.8394H16.126L15.7732 18.8472H15.4709L15.2693 18.2929L15.1181 18.8472Z" fill="#19615C"/>
    <path d="M16.7811 18.8472H16.4787L16.126 17.8394H16.4283L16.6299 18.4441L16.8315 17.8394H17.0835L17.285 18.4441L17.4866 17.8394H17.789L17.4362 18.8472H17.1339L16.9323 18.2929L16.7811 18.8472Z" fill="#19615C"/>
    <path d="M18.4441 18.8472H18.1417L17.7889 17.8394H18.0913L18.2929 18.4441L18.4945 17.8394H18.7464L18.948 18.4441L19.1496 17.8394H19.4519L19.0992 18.8472H18.7968L18.5952 18.2929L18.4441 18.8472Z" fill="#19615C"/>
    <path d="M25.1464 32.2015H14.9669V33.9653H25.1464V32.2015Z" fill="#E6E9EE"/>
    <path d="M25.1464 27.9685H14.9669V29.7323H25.1464V27.9685Z" fill="#E6E9EE"/>
    <path d="M25.1464 23.7354H14.9669V25.4992H25.1464V23.7354Z" fill="#E6E9EE"/>
    <path d="M25.1464 36.3842H14.9669V38.148H25.1464V36.3842Z" fill="#E6E9EE"/>
    <path d="M25.1464 40.6173H14.9669V42.3811H25.1464V40.6173Z" fill="#E6E9EE"/>
    <path d="M25.1464 44.8504H14.9669V46.6142H25.1464V44.8504Z" fill="#E6E9EE"/>
    <path d="M51.5528 28.2205H35.6284C35.5276 28.2205 35.4268 28.2709 35.3764 28.422L32.4032 38.5008L31.1434 35.2252C31.093 35.1244 30.9922 35.074 30.8914 35.074H29.4804C29.3292 35.074 29.2284 35.1748 29.2284 35.326C29.2284 35.4772 29.3292 35.5779 29.4804 35.5779H30.7402L32.2016 39.4079C32.252 39.5086 32.3528 39.559 32.4536 39.559C32.5544 39.559 32.6552 39.4583 32.7056 39.3575L35.83 28.7748H51.6032C51.7544 28.7748 51.8552 28.674 51.8552 28.5228C51.8048 28.3212 51.704 28.2205 51.5528 28.2205Z" fill="#19615C"/>
    <path d="M40.9701 31.6976H42.3308L40.7686 34.1165L42.4819 36.737H41.0709L40.0126 35.074L38.9544 36.737H37.5938L39.3071 34.1669L37.7449 31.6976H39.0552L40.0126 33.2094L40.9701 31.6976Z" fill="#19615C"/>
    <path d="M42.7843 35.0236V34.0661H45.3544V35.0236H42.7843Z" fill="#19615C"/>
    <path d="M48.378 32.5543C48.0756 32.5543 47.8237 32.6551 47.6725 32.8567C47.5213 33.0583 47.4205 33.3606 47.3701 33.7134C47.6725 33.5118 48.0253 33.411 48.378 33.411C48.8316 33.411 49.2347 33.5622 49.5371 33.8646C49.8394 34.1669 49.9906 34.5701 49.9906 35.074C49.9906 35.578 49.8394 35.9811 49.4867 36.2835C49.1339 36.5858 48.7308 36.737 48.2268 36.737C47.8741 36.737 47.5717 36.6866 47.3197 36.5354C47.0678 36.3843 46.8662 36.1827 46.715 35.9811C46.4127 35.5276 46.2615 34.9228 46.2615 34.2173C46.2615 33.7638 46.3119 33.3606 46.4127 33.0079C46.5134 32.6551 46.6646 32.4032 46.8662 32.2016C47.2693 31.7984 47.7229 31.5969 48.2772 31.5969C48.5292 31.5969 48.7308 31.6473 48.9323 31.6977C49.1339 31.748 49.3355 31.8488 49.4363 31.8992C49.5371 31.9496 49.6882 32.0504 49.8394 32.1512L49.2851 32.9575C49.2347 32.9071 49.2347 32.9071 49.1339 32.8567C49.0835 32.8063 48.9827 32.7559 48.7812 32.6551C48.6804 32.6047 48.5292 32.5543 48.378 32.5543ZM48.2268 34.3685C48.0253 34.3685 47.8237 34.4189 47.6725 34.5701C47.5213 34.7213 47.4205 34.8725 47.4205 35.074C47.4205 35.2756 47.4709 35.4772 47.6221 35.6284C47.7733 35.7795 47.9245 35.8803 48.1764 35.8803C48.378 35.8803 48.5796 35.8299 48.7308 35.6788C48.8819 35.5276 48.9323 35.3764 48.9323 35.1748C48.9323 34.9732 48.8819 34.7717 48.7308 34.6205C48.63 34.4189 48.4788 34.3685 48.2268 34.3685Z" fill="#19615C"/>
  </g>
  <defs>
    <clipPath id="clip0_582_403">
      <rect width="64" height="64" fill="white"/>
    </clipPath>
  </defs>
</svg>